<svg id="svg" version="1.1" xmlns="http://www.w3.org/2000/svg" xmlns:xlink="http://www.w3.org/1999/xlink" width="400" height="400" viewBox="0, 0, 400,400"><g id="svgg"><path id="path0" d="M181.927 73.807 C 181.790 73.943,180.086 74.227,178.139 74.436 C 174.609 74.817,172.208 75.209,168.800 75.960 C 167.810 76.178,166.460 76.473,165.800 76.614 C 156.736 78.556,142.761 84.179,132.681 89.940 C 120.044 97.162,103.385 112.219,95.883 123.200 C 95.206 124.190,94.551 125.090,94.426 125.200 C 93.982 125.593,90.800 130.332,90.800 130.602 C 90.800 130.753,90.461 131.354,90.047 131.938 C 87.829 135.068,82.441 145.666,80.400 150.917 C 79.698 152.723,78.970 154.560,78.782 155.000 C 78.595 155.440,78.048 157.060,77.568 158.600 C 77.088 160.140,76.559 161.760,76.393 162.200 C 75.851 163.635,74.296 169.858,73.394 174.200 C 71.867 181.551,71.413 187.284,71.413 199.200 C 71.413 210.230,71.651 213.955,72.796 220.800 C 72.998 222.010,73.269 223.630,73.398 224.400 C 73.527 225.170,73.805 226.475,74.016 227.300 C 74.227 228.125,74.580 229.520,74.800 230.400 C 75.612 233.647,76.099 235.420,76.393 236.200 C 76.559 236.640,77.088 238.260,77.568 239.800 C 78.048 241.340,78.592 242.960,78.776 243.400 C 78.960 243.840,79.786 245.910,80.613 248.000 C 82.369 252.443,87.230 262.262,88.865 264.672 C 89.489 265.592,90.000 266.537,90.000 266.772 C 90.000 267.007,90.180 267.200,90.400 267.200 C 90.620 267.200,90.800 267.390,90.800 267.622 C 90.800 268.021,93.858 272.774,94.389 273.200 C 94.526 273.310,95.069 274.030,95.595 274.800 C 104.265 287.492,121.551 302.695,135.800 310.162 C 136.680 310.623,137.490 311.094,137.600 311.208 C 137.829 311.446,142.268 313.601,144.500 314.557 C 145.325 314.911,146.585 315.459,147.300 315.775 C 157.046 320.087,161.136 319.772,162.765 314.586 C 163.543 312.107,162.854 291.732,162.000 291.960 C 153.908 294.117,142.122 293.150,135.230 289.764 C 133.564 288.945,132.110 288.168,132.000 288.037 C 131.890 287.907,130.990 287.179,130.000 286.420 C 129.010 285.661,127.720 284.491,127.133 283.820 C 126.547 283.149,125.600 282.060,125.030 281.400 C 123.989 280.196,121.143 274.671,120.600 272.800 C 119.158 267.835,113.208 259.893,108.600 256.781 C 101.188 251.775,101.123 248.348,108.438 248.316 C 111.855 248.301,112.719 248.537,117.048 250.672 C 120.804 252.524,124.443 256.098,128.055 261.482 C 135.463 272.523,144.846 277.018,154.954 274.368 C 163.391 272.156,162.753 272.704,164.461 266.200 C 165.124 263.675,167.336 259.177,168.942 257.090 C 170.551 254.997,170.548 254.992,167.400 254.630 C 164.884 254.341,161.249 253.750,160.200 253.460 C 159.760 253.338,158.140 252.942,156.600 252.580 C 148.903 250.770,140.147 246.748,134.762 242.548 C 131.674 240.139,124.800 232.601,124.800 231.623 C 124.800 231.391,124.665 231.199,124.500 231.197 C 124.335 231.195,123.994 230.790,123.743 230.297 C 120.808 224.540,119.880 222.464,118.840 219.327 C 114.767 207.044,113.843 192.530,116.364 180.400 C 117.714 173.904,122.200 164.730,126.018 160.658 C 127.239 159.354,127.572 157.497,126.835 156.095 C 125.398 153.358,124.831 140.382,125.930 135.400 C 126.951 130.773,127.640 128.433,128.666 126.100 C 130.411 122.133,145.801 126.849,159.090 135.421 C 161.339 136.872,163.319 137.974,163.490 137.870 C 165.193 136.831,178.515 134.676,187.672 133.959 C 197.437 133.194,211.953 134.629,222.379 137.392 L 224.558 137.969 227.779 135.851 C 230.569 134.017,238.244 129.600,238.641 129.600 C 238.718 129.600,239.959 129.060,241.400 128.400 C 242.841 127.740,244.198 127.200,244.415 127.200 C 244.633 127.200,245.123 127.038,245.505 126.839 C 246.170 126.494,247.208 126.195,251.200 125.203 C 252.190 124.957,254.249 124.811,255.775 124.878 L 258.550 125.000 259.210 126.800 C 259.572 127.790,259.974 128.870,260.102 129.200 C 260.230 129.530,260.448 130.340,260.585 131.000 C 260.723 131.660,261.015 132.920,261.233 133.800 C 262.552 139.114,262.597 149.464,261.320 153.983 C 260.088 158.346,260.140 158.978,261.906 161.095 C 268.679 169.213,272.561 180.944,272.531 193.200 C 272.483 212.880,267.228 228.403,257.225 238.413 C 249.414 246.229,241.045 250.322,226.200 253.587 C 224.251 254.016,219.434 254.773,217.821 254.904 L 216.641 255.000 217.834 256.400 C 219.197 258.000,220.766 260.447,221.554 262.200 C 221.851 262.860,222.252 263.713,222.447 264.095 C 222.641 264.477,222.800 265.141,222.800 265.571 C 222.800 266.001,222.961 266.452,223.158 266.574 C 224.309 267.285,224.772 276.965,224.567 296.000 C 224.384 312.923,224.420 314.297,225.085 315.586 C 226.858 319.023,230.378 319.670,235.800 317.557 C 250.648 311.772,261.245 305.424,273.784 294.803 C 276.368 292.615,284.128 284.569,287.015 281.086 C 291.049 276.218,290.835 276.497,292.813 273.562 C 293.763 272.153,294.668 270.910,294.824 270.800 C 294.980 270.690,295.464 269.970,295.900 269.200 C 296.336 268.430,297.639 266.270,298.795 264.400 C 301.084 260.698,306.143 250.436,307.571 246.600 C 308.062 245.280,308.630 243.887,308.832 243.505 C 309.034 243.123,309.200 242.459,309.200 242.029 C 309.200 241.599,309.359 241.149,309.552 241.030 C 309.746 240.910,310.003 240.404,310.124 239.906 C 310.245 239.408,310.527 238.370,310.750 237.600 C 311.531 234.902,311.942 233.378,312.584 230.800 C 312.941 229.370,313.394 227.570,313.592 226.800 C 314.128 224.714,315.405 217.117,315.878 213.200 C 316.051 211.770,316.194 205.560,316.196 199.400 C 316.200 187.287,315.874 183.469,313.993 173.600 C 313.148 169.168,310.740 160.294,309.597 157.400 C 309.423 156.960,309.064 155.970,308.800 155.200 C 308.016 152.916,307.721 152.207,304.814 145.620 C 302.671 140.761,299.268 134.488,296.733 130.722 C 295.890 129.469,295.200 128.269,295.200 128.055 C 295.200 127.842,295.055 127.607,294.877 127.533 C 294.699 127.460,293.945 126.500,293.201 125.400 C 288.625 118.635,279.977 109.023,273.590 103.602 C 272.165 102.394,270.910 101.304,270.800 101.180 C 269.812 100.070,256.824 90.800,256.256 90.800 C 256.160 90.800,254.938 90.110,253.541 89.266 C 245.683 84.523,230.536 78.485,221.800 76.614 C 216.205 75.416,213.003 74.824,209.400 74.322 C 206.205 73.878,182.304 73.429,181.927 73.807 " stroke="none" fill="#fafafa" fill-rule="evenodd"></path><path id="path1" d="M0.000 200.000 L 0.000 400.000 200.000 400.000 L 400.000 400.000 400.000 200.000 L 400.000 0.000 200.000 0.000 L 0.000 0.000 0.000 200.000 M201.600 73.025 C 208.907 73.607,212.100 73.994,216.400 74.819 C 217.610 75.051,219.276 75.341,220.103 75.463 C 220.929 75.585,221.705 75.845,221.826 76.042 C 221.948 76.239,222.656 76.400,223.400 76.400 C 224.144 76.400,224.864 76.580,225.000 76.800 C 225.136 77.020,225.766 77.200,226.400 77.200 C 227.034 77.200,227.664 77.380,227.800 77.600 C 227.936 77.820,228.541 78.000,229.144 78.000 C 229.747 78.000,230.411 78.143,230.620 78.318 C 230.829 78.493,231.720 78.866,232.600 79.147 C 234.905 79.882,238.335 81.174,240.296 82.046 C 241.228 82.461,242.098 82.800,242.228 82.800 C 242.667 82.800,252.917 88.029,254.026 88.819 C 254.630 89.248,255.235 89.600,255.372 89.600 C 255.638 89.600,265.970 96.457,267.117 97.395 C 267.493 97.702,269.240 99.110,271.000 100.524 C 275.913 104.469,284.452 113.077,288.536 118.200 C 289.588 119.520,290.666 120.870,290.930 121.200 C 291.195 121.530,291.854 122.430,292.395 123.200 C 292.936 123.970,293.698 124.949,294.089 125.375 C 294.480 125.802,294.800 126.387,294.800 126.675 C 294.800 126.964,294.945 127.200,295.123 127.200 C 295.839 127.200,303.420 140.700,305.793 146.200 C 306.173 147.080,306.847 148.610,307.292 149.600 C 307.737 150.590,308.280 151.850,308.497 152.400 C 308.715 152.950,309.052 153.713,309.247 154.095 C 309.441 154.477,309.600 155.141,309.600 155.571 C 309.600 156.001,309.780 156.464,310.000 156.600 C 310.220 156.736,310.400 157.276,310.400 157.800 C 310.400 158.324,310.580 158.864,310.800 159.000 C 311.020 159.136,311.200 159.676,311.200 160.200 C 311.200 160.724,311.360 161.252,311.556 161.373 C 311.751 161.494,312.005 162.179,312.119 162.896 C 312.232 163.613,312.534 164.920,312.789 165.800 C 317.489 182.013,318.492 204.816,315.252 221.800 C 314.250 227.055,313.987 228.315,313.583 229.800 C 313.343 230.680,312.993 232.030,312.804 232.800 C 312.205 235.250,311.941 236.179,311.612 237.000 C 311.436 237.440,311.059 238.610,310.776 239.600 C 310.493 240.590,310.112 241.571,309.930 241.780 C 309.749 241.989,309.600 242.486,309.600 242.885 C 309.600 243.284,309.441 243.923,309.247 244.305 C 309.052 244.687,308.692 245.495,308.447 246.100 C 308.201 246.705,307.834 247.605,307.631 248.100 C 307.428 248.595,306.933 249.805,306.531 250.789 C 304.153 256.606,295.292 272.251,293.611 273.600 C 293.474 273.710,292.929 274.430,292.400 275.200 C 291.871 275.970,291.331 276.690,291.200 276.800 C 291.069 276.910,290.523 277.630,289.988 278.400 C 287.136 282.502,279.206 290.804,272.977 296.210 C 269.366 299.344,267.189 301.045,264.000 303.223 C 262.570 304.201,261.162 305.225,260.871 305.500 C 260.581 305.775,260.189 306.000,260.000 306.000 C 259.811 306.000,259.412 306.225,259.113 306.500 C 258.603 306.968,258.160 307.245,255.900 308.500 C 255.405 308.775,254.910 309.090,254.800 309.200 C 253.495 310.505,240.075 316.806,234.722 318.627 C 231.241 319.810,229.714 319.846,227.479 318.795 C 224.080 317.197,224.232 318.284,223.961 293.600 C 223.829 281.610,223.597 271.170,223.444 270.400 C 222.412 265.185,220.248 260.243,217.593 257.036 C 215.660 254.702,215.700 254.647,219.800 254.026 C 252.263 249.106,267.103 234.781,271.212 204.400 C 271.746 200.450,271.524 185.372,270.882 182.000 C 269.907 176.877,265.431 166.088,263.581 164.400 C 263.460 164.290,262.929 163.570,262.400 162.800 C 261.871 162.030,261.340 161.308,261.219 161.197 C 259.568 159.665,259.088 158.751,259.486 157.901 C 259.966 156.878,260.530 154.804,261.200 151.600 C 261.670 149.354,261.558 138.714,261.036 136.000 C 260.436 132.879,259.236 128.519,258.531 126.903 C 257.821 125.275,256.558 124.925,253.596 125.537 C 252.362 125.791,250.878 126.000,250.300 126.000 C 249.721 126.000,249.136 126.180,249.000 126.400 C 248.864 126.620,248.234 126.800,247.600 126.800 C 246.966 126.800,246.336 126.980,246.200 127.200 C 246.064 127.420,245.691 127.600,245.372 127.600 C 243.617 127.600,232.243 133.530,226.553 137.412 C 224.931 138.518,224.455 138.537,220.600 137.648 C 215.908 136.565,214.525 136.309,209.200 135.535 C 198.321 133.953,180.683 134.530,170.800 136.793 C 168.151 137.399,165.173 138.019,163.736 138.264 C 162.721 138.437,162.013 138.169,160.136 136.901 C 157.409 135.060,150.863 131.272,148.700 130.285 C 142.873 127.624,140.226 126.703,136.400 126.005 C 135.410 125.824,133.935 125.547,133.122 125.389 C 130.088 124.801,129.231 125.574,128.005 130.000 C 127.731 130.990,127.363 132.250,127.186 132.800 C 126.160 135.990,125.842 149.685,126.712 153.200 C 126.957 154.190,127.281 155.540,127.432 156.200 C 127.584 156.860,127.877 157.616,128.085 157.879 C 128.531 158.444,128.228 159.053,126.600 160.864 C 125.940 161.599,125.145 162.695,124.832 163.300 C 124.520 163.905,124.115 164.400,123.932 164.400 C 123.750 164.400,123.600 164.670,123.600 165.000 C 123.600 165.330,123.465 165.601,123.300 165.603 C 123.135 165.605,122.798 166.010,122.551 166.503 C 119.717 172.161,119.011 173.761,118.191 176.368 C 114.220 189.006,115.262 209.046,120.576 222.223 C 122.590 227.218,122.958 228.000,123.298 228.000 C 123.464 228.000,123.600 228.188,123.600 228.418 C 123.600 230.072,131.286 239.115,135.000 241.830 C 135.879 242.474,136.948 243.315,137.375 243.700 C 137.802 244.085,138.387 244.400,138.675 244.400 C 138.964 244.400,139.201 244.535,139.203 244.700 C 139.205 244.865,139.610 245.193,140.103 245.429 C 140.596 245.665,141.900 246.325,143.000 246.896 C 149.465 250.248,156.679 252.357,167.774 254.137 C 171.281 254.699,171.620 254.999,170.367 256.428 C 167.407 259.806,164.418 266.434,164.404 269.646 C 164.399 270.851,163.016 272.800,162.166 272.800 C 161.849 272.800,161.277 272.959,160.895 273.153 C 157.892 274.681,156.617 274.903,149.841 275.083 C 145.997 275.185,143.732 275.092,143.461 274.821 C 143.229 274.589,142.714 274.400,142.315 274.400 C 141.916 274.400,141.277 274.240,140.895 274.044 C 140.513 273.848,139.300 273.272,138.200 272.763 C 136.027 271.760,129.453 265.468,128.401 263.386 C 128.071 262.734,127.711 262.110,127.601 262.000 C 127.490 261.890,127.130 261.323,126.800 260.740 C 122.315 252.817,111.511 247.045,105.342 249.275 C 103.000 250.122,103.262 251.841,106.068 254.038 C 107.020 254.784,107.860 255.530,107.933 255.697 C 108.007 255.864,108.324 256.000,108.639 256.000 C 111.409 256.000,119.146 266.917,122.387 275.400 C 123.081 277.217,123.840 278.645,124.500 279.375 C 124.885 279.802,125.200 280.312,125.200 280.509 C 125.200 282.416,135.948 290.400,138.516 290.400 C 138.804 290.400,139.211 290.551,139.420 290.736 C 140.205 291.429,147.486 292.582,150.800 292.538 C 151.790 292.524,154.400 292.293,156.600 292.024 C 158.800 291.755,161.230 291.505,162.000 291.468 L 163.400 291.400 163.510 303.000 C 163.625 315.144,163.581 315.521,161.818 317.535 C 158.791 320.994,154.142 320.051,140.200 313.153 C 135.129 310.644,132.484 309.190,130.738 307.953 C 130.154 307.539,129.479 307.200,129.238 307.200 C 128.997 307.200,128.800 307.020,128.800 306.800 C 128.800 306.580,128.564 306.400,128.275 306.400 C 127.987 306.400,127.364 306.040,126.892 305.600 C 126.420 305.160,125.880 304.800,125.692 304.800 C 125.504 304.800,125.002 304.482,124.575 304.094 C 124.149 303.705,122.630 302.554,121.200 301.536 C 113.269 295.889,103.457 286.204,96.543 277.200 C 89.899 268.547,82.818 255.993,79.396 246.800 C 79.027 245.810,78.581 244.640,78.403 244.200 C 78.226 243.760,77.864 242.770,77.600 242.000 C 77.336 241.230,76.978 240.240,76.805 239.800 C 76.633 239.360,76.270 238.190,76.000 237.200 C 75.730 236.210,75.363 235.040,75.185 234.600 C 75.006 234.160,74.749 233.260,74.612 232.600 C 74.476 231.940,74.182 230.680,73.960 229.800 C 71.280 219.183,70.224 208.478,70.548 195.200 C 70.780 185.692,71.032 183.319,72.830 173.700 C 73.359 170.866,74.388 166.655,75.198 164.000 C 75.366 163.450,75.907 161.650,76.399 160.000 C 77.310 156.949,77.813 155.550,78.447 154.305 C 78.641 153.923,78.800 153.426,78.800 153.201 C 78.800 152.976,79.178 151.938,79.640 150.896 C 80.102 149.853,80.627 148.640,80.806 148.200 C 83.285 142.124,90.687 128.686,92.374 127.200 C 92.499 127.090,92.856 126.505,93.168 125.900 C 93.480 125.295,93.885 124.800,94.068 124.800 C 94.250 124.800,94.400 124.613,94.400 124.383 C 94.400 122.531,109.340 106.445,116.412 100.682 C 120.876 97.044,120.623 97.242,122.400 96.000 C 123.170 95.462,124.149 94.702,124.575 94.311 C 125.002 93.920,125.587 93.600,125.875 93.600 C 126.164 93.600,126.400 93.453,126.400 93.274 C 126.400 93.095,127.075 92.580,127.900 92.130 C 128.725 91.679,130.570 90.596,132.000 89.722 C 136.946 86.700,140.961 84.690,148.000 81.711 C 150.687 80.574,151.011 80.449,152.600 79.945 C 153.480 79.665,154.371 79.293,154.580 79.118 C 154.789 78.943,155.286 78.800,155.685 78.800 C 156.084 78.800,156.723 78.642,157.105 78.449 C 158.261 77.865,160.604 77.200,161.505 77.200 C 161.971 77.200,162.452 77.040,162.573 76.844 C 162.694 76.649,163.379 76.387,164.096 76.263 C 164.813 76.139,166.030 75.927,166.800 75.792 C 167.570 75.656,168.560 75.391,169.000 75.202 C 169.440 75.013,170.700 74.742,171.800 74.601 C 172.900 74.459,174.880 74.175,176.200 73.969 C 177.520 73.764,181.030 73.417,184.000 73.198 C 186.970 72.979,189.940 72.739,190.600 72.664 C 192.945 72.398,194.286 72.442,201.600 73.025 " stroke="none" fill="#040404" fill-rule="evenodd"></path><path id="path2" d="M192.112 73.095 C 193.164 73.177,194.784 73.176,195.712 73.092 C 196.640 73.008,195.780 72.941,193.800 72.942 C 191.820 72.943,191.060 73.012,192.112 73.095 M110.575 106.100 L 109.400 107.400 110.700 106.225 C 111.415 105.579,112.000 104.994,112.000 104.925 C 112.000 104.616,111.670 104.888,110.575 106.100 M279.400 108.800 C 280.706 110.120,281.865 111.200,281.975 111.200 C 282.085 111.200,281.106 110.120,279.800 108.800 C 278.494 107.480,277.335 106.400,277.225 106.400 C 277.115 106.400,278.094 107.480,279.400 108.800 M191.715 134.296 C 192.988 134.376,194.968 134.375,196.115 134.294 C 197.262 134.214,196.220 134.149,193.800 134.150 C 191.380 134.151,190.442 134.216,191.715 134.296 M115.293 190.400 C 115.293 191.170,115.375 191.485,115.476 191.100 C 115.576 190.715,115.576 190.085,115.476 189.700 C 115.375 189.315,115.293 189.630,115.293 190.400 M272.128 192.800 C 272.128 194.230,272.201 194.815,272.289 194.100 C 272.378 193.385,272.378 192.215,272.289 191.500 C 272.201 190.785,272.128 191.370,272.128 192.800 M115.320 195.600 C 115.320 196.810,115.395 197.305,115.487 196.700 C 115.578 196.095,115.578 195.105,115.487 194.500 C 115.395 193.895,115.320 194.390,115.320 195.600 M70.509 199.600 C 70.509 200.590,70.587 200.995,70.682 200.500 C 70.778 200.005,70.778 199.195,70.682 198.700 C 70.587 198.205,70.509 198.610,70.509 199.600 M224.114 311.400 C 224.117 312.500,224.195 312.903,224.287 312.295 C 224.379 311.686,224.377 310.786,224.282 310.295 C 224.187 309.803,224.111 310.300,224.114 311.400 " stroke="none" fill="#7c7c7c" fill-rule="evenodd"></path><path id="path3" d="M192.707 72.690 C 193.426 72.779,194.506 72.777,195.107 72.686 C 195.708 72.595,195.120 72.522,193.800 72.524 C 192.480 72.526,191.988 72.601,192.707 72.690 M187.107 73.090 C 187.826 73.179,188.906 73.177,189.507 73.086 C 190.108 72.995,189.520 72.922,188.200 72.924 C 186.880 72.926,186.388 73.001,187.107 73.090 M198.307 73.090 C 199.026 73.179,200.106 73.177,200.707 73.086 C 201.308 72.995,200.720 72.922,199.400 72.924 C 198.080 72.926,197.588 73.001,198.307 73.090 M178.600 73.602 C 178.105 73.816,178.790 73.860,180.400 73.718 C 181.830 73.592,183.075 73.423,183.167 73.344 C 183.520 73.039,179.358 73.274,178.600 73.602 M204.033 73.344 C 204.125 73.423,205.460 73.584,207.000 73.701 C 208.627 73.825,209.381 73.781,208.800 73.597 C 207.811 73.283,203.712 73.066,204.033 73.344 M173.400 74.410 C 172.866 74.647,173.198 74.686,174.400 74.527 C 175.390 74.396,176.275 74.224,176.367 74.144 C 176.714 73.843,174.164 74.072,173.400 74.410 M211.233 74.144 C 211.325 74.224,212.210 74.396,213.200 74.527 C 214.402 74.686,214.734 74.647,214.200 74.410 C 213.436 74.072,210.886 73.843,211.233 74.144 M168.990 75.216 C 168.821 75.489,169.123 75.538,169.866 75.360 C 171.399 74.992,171.544 74.800,170.290 74.800 C 169.717 74.800,169.132 74.987,168.990 75.216 M216.433 74.944 C 216.525 75.023,217.140 75.208,217.800 75.356 C 218.676 75.552,218.838 75.515,218.400 75.218 C 217.860 74.853,216.032 74.598,216.433 74.944 M165.600 76.018 C 165.162 76.315,165.324 76.352,166.200 76.156 C 167.671 75.827,167.990 75.598,166.967 75.606 C 166.545 75.609,165.930 75.795,165.600 76.018 M220.600 76.000 C 221.701 76.473,222.092 76.473,221.800 76.000 C 221.664 75.780,221.158 75.613,220.676 75.628 C 219.831 75.655,219.829 75.669,220.600 76.000 M139.500 85.429 C 137.949 86.270,138.125 86.561,139.700 85.759 C 141.208 84.993,141.475 84.794,140.967 84.816 C 140.765 84.825,140.105 85.101,139.500 85.429 M255.600 90.020 C 256.987 90.961,257.778 91.235,256.800 90.436 C 256.250 89.986,255.620 89.617,255.400 89.615 C 255.180 89.613,255.270 89.796,255.600 90.020 M127.029 92.609 C 126.605 92.929,126.338 93.271,126.435 93.369 C 126.532 93.466,127.059 93.202,127.606 92.782 C 128.153 92.361,128.420 92.020,128.200 92.022 C 127.980 92.024,127.453 92.288,127.029 92.609 M124.629 94.209 C 124.205 94.529,123.938 94.871,124.035 94.969 C 124.132 95.066,124.659 94.802,125.206 94.382 C 125.753 93.961,126.020 93.620,125.800 93.622 C 125.580 93.624,125.053 93.888,124.629 94.209 M118.887 98.700 C 117.930 99.635,117.914 99.681,118.781 99.006 C 120.488 97.676,120.569 97.600,120.286 97.600 C 120.136 97.600,119.506 98.095,118.887 98.700 M114.800 102.040 L 112.600 104.070 114.900 102.187 C 116.919 100.533,117.468 99.988,117.100 100.004 C 117.045 100.007,116.010 100.923,114.800 102.040 M273.395 102.881 C 274.938 104.355,276.324 105.570,276.476 105.581 C 276.628 105.591,275.818 104.745,274.676 103.700 C 271.235 100.551,270.397 100.015,273.395 102.881 M282.800 111.852 C 282.800 112.064,283.565 112.949,284.500 113.819 L 286.200 115.400 284.600 113.606 C 283.720 112.620,282.955 111.735,282.900 111.639 C 282.845 111.544,282.800 111.640,282.800 111.852 M101.775 114.900 L 100.600 116.200 101.900 115.025 C 103.112 113.930,103.384 113.600,103.075 113.600 C 103.006 113.600,102.421 114.185,101.775 114.900 M286.870 116.778 C 287.381 117.426,287.949 117.966,288.130 117.978 C 288.312 117.990,288.042 117.470,287.530 116.822 C 287.019 116.174,286.451 115.634,286.270 115.622 C 286.088 115.610,286.358 116.130,286.870 116.778 M99.601 117.398 C 99.086 117.948,98.739 118.464,98.832 118.546 C 98.924 118.628,99.419 118.178,99.930 117.547 C 101.076 116.135,100.874 116.044,99.601 117.398 M94.998 123.202 C 94.598 123.644,94.366 124.099,94.482 124.215 C 94.597 124.330,94.990 123.969,95.355 123.412 C 96.152 122.196,95.993 122.102,94.998 123.202 M293.600 125.047 C 293.600 125.267,293.864 125.796,294.187 126.224 C 294.510 126.651,294.775 126.820,294.775 126.600 C 294.775 126.380,294.510 125.851,294.187 125.424 C 293.864 124.996,293.600 124.827,293.600 125.047 M129.311 125.700 C 128.711 126.476,128.353 127.677,128.805 127.397 C 129.022 127.263,129.200 126.902,129.200 126.596 C 129.200 126.290,129.515 125.856,129.900 125.632 C 130.285 125.408,130.397 125.219,130.149 125.212 C 129.901 125.205,129.524 125.425,129.311 125.700 M134.200 125.600 C 134.640 125.789,135.450 125.938,136.000 125.932 L 137.000 125.920 136.000 125.600 C 135.450 125.424,134.640 125.274,134.200 125.268 L 133.400 125.256 134.200 125.600 M251.400 125.600 C 250.322 125.874,250.302 125.906,251.200 125.913 C 251.750 125.917,252.650 125.776,253.200 125.600 C 254.544 125.169,253.092 125.169,251.400 125.600 M295.203 127.273 C 295.199 127.609,297.660 131.600,297.870 131.600 C 297.953 131.600,297.754 131.105,297.429 130.500 C 296.612 128.979,295.206 126.942,295.203 127.273 M90.322 130.100 C 88.897 132.250,87.698 134.377,88.137 133.975 C 88.346 133.784,90.789 130.076,91.744 128.500 C 92.620 127.055,91.518 128.294,90.322 130.100 M127.246 131.267 C 127.221 131.634,127.096 132.264,126.970 132.667 C 126.752 133.362,126.763 133.363,127.197 132.687 C 127.448 132.296,127.573 131.666,127.473 131.287 C 127.311 130.668,127.288 130.666,127.246 131.267 M150.400 130.942 C 150.400 131.046,151.615 131.806,153.100 132.632 C 154.585 133.457,156.250 134.394,156.800 134.714 L 157.800 135.295 156.896 134.547 C 155.854 133.686,150.400 130.659,150.400 130.942 M260.006 131.833 C 260.009 132.255,260.195 132.870,260.418 133.200 C 260.715 133.638,260.752 133.476,260.556 132.600 C 260.227 131.129,259.998 130.810,260.006 131.833 M298.349 132.600 C 298.565 133.040,299.034 133.760,299.393 134.200 L 300.044 135.000 299.651 134.200 C 299.435 133.760,298.966 133.040,298.607 132.600 L 297.956 131.800 298.349 132.600 M86.628 136.261 C 86.056 137.284,85.652 138.185,85.729 138.263 C 85.807 138.340,86.361 137.503,86.960 136.402 C 87.560 135.301,87.964 134.400,87.859 134.400 C 87.754 134.400,87.200 135.237,86.628 136.261 M126.449 135.000 C 126.416 135.440,126.296 136.250,126.183 136.800 L 125.977 137.800 126.406 136.819 C 126.642 136.279,126.761 135.469,126.672 135.019 C 126.513 134.221,126.507 134.221,126.449 135.000 M184.500 134.691 C 185.325 134.778,186.675 134.778,187.500 134.691 C 188.325 134.605,187.650 134.534,186.000 134.534 C 184.350 134.534,183.675 134.605,184.500 134.691 M200.291 134.689 C 201.001 134.777,202.261 134.779,203.091 134.692 C 203.921 134.605,203.340 134.533,201.800 134.531 C 200.260 134.529,199.581 134.600,200.291 134.689 M260.846 135.600 C 260.827 136.150,260.987 136.870,261.200 137.200 C 261.694 137.964,261.694 137.142,261.200 135.600 L 260.880 134.600 260.846 135.600 M177.505 135.483 C 178.002 135.579,178.722 135.575,179.105 135.475 C 179.487 135.375,179.080 135.296,178.200 135.301 C 177.320 135.305,177.007 135.387,177.505 135.483 M208.705 135.483 C 209.202 135.579,209.922 135.575,210.305 135.475 C 210.687 135.375,210.280 135.296,209.400 135.301 C 208.520 135.305,208.207 135.387,208.705 135.483 M228.144 135.969 C 227.453 136.390,226.765 136.933,226.616 137.174 C 226.392 137.537,228.975 135.958,229.556 135.377 C 229.947 134.987,229.333 135.244,228.144 135.969 M300.015 135.400 C 300.017 135.620,300.386 136.250,300.836 136.800 C 301.379 137.464,301.515 137.531,301.240 137.000 C 300.566 135.695,300.012 134.972,300.015 135.400 M171.400 136.400 C 170.896 136.617,170.822 136.744,171.200 136.744 C 171.530 136.744,172.160 136.589,172.600 136.400 C 173.104 136.183,173.178 136.056,172.800 136.056 C 172.470 136.056,171.840 136.211,171.400 136.400 M215.000 136.400 C 215.440 136.589,216.070 136.744,216.400 136.744 C 216.778 136.744,216.704 136.617,216.200 136.400 C 215.760 136.211,215.130 136.056,214.800 136.056 C 214.422 136.056,214.496 136.183,215.000 136.400 M167.600 137.200 C 166.805 137.714,167.804 137.714,169.000 137.200 L 169.800 136.856 169.000 136.834 C 168.560 136.822,167.930 136.987,167.600 137.200 M218.600 137.200 C 219.040 137.389,219.670 137.544,220.000 137.544 C 220.378 137.544,220.304 137.417,219.800 137.200 C 219.360 137.011,218.730 136.856,218.400 136.856 C 218.022 136.856,218.096 136.983,218.600 137.200 M84.400 140.400 C 83.951 141.280,83.674 142.000,83.784 142.000 C 83.894 142.000,84.351 141.280,84.800 140.400 C 85.249 139.520,85.526 138.800,85.416 138.800 C 85.306 138.800,84.849 139.520,84.400 140.400 M125.753 144.200 C 125.753 146.840,125.818 147.868,125.897 146.484 C 125.975 145.101,125.974 142.941,125.895 141.684 C 125.816 140.428,125.752 141.560,125.753 144.200 M261.744 144.400 C 261.744 146.490,261.812 147.345,261.894 146.300 C 261.976 145.255,261.976 143.545,261.894 142.500 C 261.812 141.455,261.744 142.310,261.744 144.400 M261.000 152.000 C 260.848 152.691,260.807 153.341,260.909 153.442 C 261.011 153.544,261.209 153.053,261.350 152.350 C 261.683 150.683,261.360 150.360,261.000 152.000 M126.258 152.400 C 126.575 154.125,126.802 154.451,126.794 153.167 C 126.791 152.635,126.611 151.930,126.394 151.600 C 126.118 151.178,126.077 151.415,126.258 152.400 M127.044 155.800 C 127.373 157.271,127.602 157.590,127.594 156.567 C 127.591 156.145,127.405 155.530,127.182 155.200 C 126.885 154.762,126.848 154.924,127.044 155.800 M127.600 158.394 C 127.600 158.919,127.195 159.809,126.700 160.371 L 125.800 161.394 126.737 160.602 C 128.069 159.475,128.575 158.415,128.037 157.877 C 127.721 157.561,127.600 157.704,127.600 158.394 M259.349 158.190 C 259.124 158.776,260.693 161.135,261.336 161.178 C 261.520 161.190,261.196 160.635,260.614 159.944 C 260.033 159.253,259.651 158.443,259.766 158.144 C 259.881 157.845,259.885 157.600,259.775 157.600 C 259.665 157.600,259.473 157.865,259.349 158.190 M124.281 163.439 C 123.886 163.968,123.708 164.400,123.885 164.400 C 124.234 164.400,125.338 162.801,125.128 162.600 C 125.057 162.533,124.677 162.911,124.281 163.439 M74.249 167.015 C 74.112 167.373,74.015 167.966,74.034 168.333 C 74.053 168.700,74.227 168.469,74.421 167.820 C 74.798 166.558,74.665 165.933,74.249 167.015 M313.044 167.800 C 313.373 169.271,313.602 169.590,313.594 168.567 C 313.591 168.145,313.405 167.530,313.182 167.200 C 312.885 166.762,312.848 166.924,313.044 167.800 M73.449 170.215 C 73.312 170.573,73.216 171.256,73.236 171.733 C 73.262 172.347,73.385 172.208,73.659 171.256 C 74.057 169.872,73.894 169.058,73.449 170.215 M313.858 171.200 C 314.175 172.925,314.402 173.251,314.394 171.967 C 314.391 171.435,314.211 170.730,313.994 170.400 C 313.718 169.978,313.677 170.215,313.858 171.200 M267.807 172.279 C 268.407 173.714,268.800 174.362,268.800 173.916 C 268.800 173.484,267.585 170.800,267.389 170.800 C 267.279 170.800,267.467 171.466,267.807 172.279 M72.656 174.084 C 72.521 174.588,72.428 175.450,72.449 176.000 C 72.472 176.589,72.631 176.271,72.836 175.225 C 73.203 173.352,73.073 172.527,72.656 174.084 M314.682 175.400 C 314.809 176.500,314.977 177.475,315.056 177.567 C 315.355 177.914,315.128 174.964,314.797 174.200 C 314.574 173.685,314.533 174.113,314.682 175.400 M269.026 175.359 C 269.449 177.047,270.364 179.418,270.382 178.875 C 270.404 178.236,269.173 174.400,268.946 174.400 C 268.857 174.400,268.893 174.832,269.026 175.359 M71.856 178.484 C 71.721 178.988,71.631 180.030,71.655 180.800 C 71.689 181.869,71.775 181.680,72.018 180.002 C 72.353 177.692,72.272 176.933,71.856 178.484 M315.493 180.200 C 315.613 181.520,315.776 182.675,315.855 182.767 C 316.151 183.107,315.931 179.370,315.610 178.600 C 315.408 178.117,315.362 178.751,315.493 180.200 M270.828 182.233 C 270.844 182.875,271.016 183.760,271.210 184.200 C 271.447 184.734,271.486 184.402,271.327 183.200 C 271.046 181.080,270.788 180.580,270.828 182.233 M71.059 184.288 C 70.921 185.119,70.831 186.700,70.859 187.800 C 70.897 189.323,70.987 188.992,71.235 186.414 C 71.577 182.856,71.483 181.719,71.059 184.288 M115.728 187.600 C 115.728 189.030,115.801 189.615,115.889 188.900 C 115.978 188.185,115.978 187.015,115.889 186.300 C 115.801 185.585,115.728 186.170,115.728 187.600 M271.769 193.800 C 271.770 198.420,271.828 200.255,271.899 197.878 C 271.970 195.501,271.969 191.721,271.898 189.478 C 271.827 187.235,271.769 189.180,271.769 193.800 M316.531 188.200 C 316.533 189.740,316.605 190.321,316.692 189.491 C 316.779 188.661,316.777 187.401,316.689 186.691 C 316.600 185.981,316.529 186.660,316.531 188.200 M70.540 194.800 C 70.540 196.670,70.609 197.435,70.693 196.500 C 70.777 195.565,70.777 194.035,70.693 193.100 C 70.609 192.165,70.540 192.930,70.540 194.800 M316.966 199.200 C 316.966 203.270,317.025 204.935,317.098 202.900 C 317.171 200.865,317.171 197.535,317.098 195.500 C 317.025 193.465,316.966 195.130,316.966 199.200 M115.740 200.000 C 115.740 201.870,115.809 202.635,115.893 201.700 C 115.977 200.765,115.977 199.235,115.893 198.300 C 115.809 197.365,115.740 198.130,115.740 200.000 M70.537 204.200 C 70.539 205.960,70.609 206.630,70.693 205.689 C 70.778 204.749,70.777 203.309,70.691 202.489 C 70.605 201.670,70.536 202.440,70.537 204.200 M271.072 204.604 C 270.927 205.482,270.829 206.740,270.853 207.400 C 270.878 208.060,271.055 207.520,271.248 206.200 C 271.640 203.515,271.485 202.107,271.072 204.604 M116.509 207.600 C 116.509 208.590,116.587 208.995,116.682 208.500 C 116.778 208.005,116.778 207.195,116.682 206.700 C 116.587 206.205,116.509 206.610,116.509 207.600 M316.531 210.200 C 316.533 211.740,316.605 212.321,316.692 211.491 C 316.779 210.661,316.777 209.401,316.689 208.691 C 316.600 207.981,316.529 208.660,316.531 210.200 M70.840 211.433 C 70.862 212.735,71.018 214.250,71.188 214.800 C 71.357 215.350,71.405 214.360,71.293 212.600 C 71.052 208.790,70.784 208.100,70.840 211.433 M117.268 212.200 C 117.262 212.640,117.411 213.360,117.600 213.800 C 118.038 214.819,118.038 213.768,117.600 212.400 C 117.343 211.596,117.277 211.557,117.268 212.200 M118.006 215.433 C 118.009 215.855,118.195 216.470,118.418 216.800 C 118.715 217.238,118.752 217.076,118.556 216.200 C 118.227 214.729,117.998 214.410,118.006 215.433 M315.709 217.600 C 315.709 218.590,315.787 218.995,315.882 218.500 C 315.978 218.005,315.978 217.195,315.882 216.700 C 315.787 216.205,315.709 216.610,315.709 217.600 M71.628 217.833 C 71.644 218.695,71.809 219.760,71.996 220.200 C 72.208 220.698,72.251 220.169,72.112 218.800 C 71.844 216.165,71.589 215.657,71.628 217.833 M314.893 222.400 C 314.893 223.170,314.975 223.485,315.076 223.100 C 315.176 222.715,315.176 222.085,315.076 221.700 C 314.975 221.315,314.893 221.630,314.893 222.400 M72.493 222.800 C 72.493 223.570,72.575 223.885,72.676 223.500 C 72.776 223.115,72.776 222.485,72.676 222.100 C 72.575 221.715,72.493 222.030,72.493 222.800 M314.049 226.200 C 314.016 226.640,313.896 227.450,313.783 228.000 L 313.577 229.000 314.006 228.019 C 314.242 227.479,314.361 226.669,314.272 226.219 C 314.113 225.421,314.107 225.421,314.049 226.200 M73.206 226.833 C 73.209 227.365,73.389 228.070,73.606 228.400 C 73.882 228.822,73.923 228.585,73.742 227.600 C 73.425 225.875,73.198 225.549,73.206 226.833 M263.800 228.800 C 263.459 229.460,263.269 230.000,263.379 230.000 C 263.489 230.000,263.859 229.460,264.200 228.800 C 264.541 228.140,264.731 227.600,264.621 227.600 C 264.511 227.600,264.141 228.140,263.800 228.800 M313.246 229.667 C 313.221 230.034,313.096 230.664,312.970 231.067 C 312.752 231.762,312.763 231.763,313.197 231.087 C 313.448 230.696,313.573 230.066,313.473 229.687 C 313.311 229.068,313.288 229.066,313.246 229.667 M74.006 230.233 C 74.009 230.655,74.195 231.270,74.418 231.600 C 74.715 232.038,74.752 231.876,74.556 231.000 C 74.227 229.529,73.998 229.210,74.006 230.233 M125.077 231.631 C 125.475 232.308,126.056 233.073,126.368 233.331 C 126.680 233.589,126.432 233.035,125.815 232.100 C 124.520 230.137,124.009 229.812,125.077 231.631 M312.446 232.867 C 312.421 233.234,312.296 233.864,312.170 234.267 C 311.952 234.962,311.963 234.963,312.397 234.287 C 312.648 233.896,312.773 233.266,312.673 232.887 C 312.511 232.268,312.488 232.266,312.446 232.867 M74.828 233.476 C 74.813 233.958,74.980 234.464,75.200 234.600 C 75.673 234.892,75.673 234.501,75.200 233.400 C 74.869 232.629,74.855 232.631,74.828 233.476 M259.755 234.681 C 258.907 235.716,258.422 236.434,258.677 236.276 C 259.221 235.940,261.755 232.800,261.482 232.800 C 261.380 232.800,260.603 233.647,259.755 234.681 M128.691 236.200 C 130.833 238.745,132.341 240.235,132.502 239.964 C 132.556 239.874,131.266 238.450,129.636 236.800 C 126.840 233.971,126.786 233.936,128.691 236.200 M257.400 237.332 C 257.180 237.607,256.644 238.275,256.209 238.816 C 255.768 239.364,256.078 239.189,256.909 238.422 C 257.729 237.663,258.400 236.988,258.400 236.922 C 258.400 236.617,257.761 236.879,257.400 237.332 M253.775 240.900 L 252.600 242.200 253.900 241.025 C 254.615 240.379,255.200 239.794,255.200 239.725 C 255.200 239.416,254.870 239.688,253.775 240.900 M250.287 243.368 C 247.906 245.016,247.436 245.493,249.000 244.672 C 250.171 244.057,252.798 242.021,252.400 242.036 C 252.290 242.041,251.339 242.640,250.287 243.368 M107.300 248.687 C 107.905 248.778,108.895 248.778,109.500 248.687 C 110.105 248.595,109.610 248.520,108.400 248.520 C 107.190 248.520,106.695 248.595,107.300 248.687 M111.400 249.200 C 111.840 249.389,112.560 249.538,113.000 249.532 C 113.643 249.523,113.604 249.457,112.800 249.200 C 111.432 248.762,110.381 248.762,111.400 249.200 M114.833 250.149 C 115.245 250.517,117.600 251.600,117.600 251.421 C 117.600 251.190,115.382 250.000,114.953 250.000 C 114.796 250.000,114.742 250.067,114.833 250.149 M105.600 253.966 C 106.590 254.864,107.565 255.598,107.767 255.599 C 107.968 255.600,108.058 255.549,107.967 255.486 C 107.875 255.423,106.900 254.689,105.800 253.853 L 103.800 252.335 105.600 253.966 M162.600 253.597 C 163.364 253.928,166.314 254.155,165.967 253.856 C 165.875 253.777,164.900 253.609,163.800 253.482 C 162.513 253.333,162.085 253.374,162.600 253.597 M221.505 253.883 C 222.002 253.979,222.722 253.975,223.105 253.875 C 223.487 253.775,223.080 253.696,222.200 253.701 C 221.320 253.705,221.007 253.787,221.505 253.883 M169.718 254.688 C 170.644 254.828,170.795 255.006,170.599 255.728 C 170.391 256.493,170.416 256.513,170.803 255.897 C 171.402 254.940,170.970 254.388,169.676 254.460 L 168.600 254.520 169.718 254.688 M217.730 257.188 C 218.553 258.171,219.692 259.926,220.260 261.088 C 221.426 263.470,221.914 263.926,221.028 261.804 C 220.280 260.015,218.357 257.227,217.163 256.200 C 216.651 255.760,216.906 256.205,217.730 257.188 M112.800 259.800 C 113.546 260.570,114.247 261.200,114.357 261.200 C 114.467 261.200,113.946 260.570,113.200 259.800 C 112.454 259.030,111.753 258.400,111.643 258.400 C 111.533 258.400,112.054 259.030,112.800 259.800 M300.600 262.000 C 300.259 262.660,300.069 263.200,300.179 263.200 C 300.289 263.200,300.659 262.660,301.000 262.000 C 301.341 261.340,301.531 260.800,301.421 260.800 C 301.311 260.800,300.941 261.340,300.600 262.000 M165.661 263.700 C 165.203 264.855,164.727 266.340,164.604 267.000 C 164.480 267.660,164.810 267.030,165.339 265.600 C 165.867 264.170,166.431 262.685,166.592 262.300 C 166.754 261.915,166.797 261.600,166.689 261.600 C 166.581 261.600,166.118 262.545,165.661 263.700 M115.775 263.332 C 116.391 264.139,116.976 264.800,117.075 264.800 C 117.353 264.800,115.621 262.460,115.109 262.144 C 114.859 261.989,115.159 262.524,115.775 263.332 M128.000 262.648 C 128.000 262.858,128.544 263.653,129.210 264.415 L 130.419 265.800 129.387 264.210 C 128.164 262.329,128.000 262.144,128.000 262.648 M88.524 265.400 C 88.862 266.060,89.438 266.960,89.804 267.400 C 90.170 267.840,90.065 267.480,89.570 266.600 C 88.480 264.658,87.664 263.722,88.524 265.400 M117.800 266.400 C 118.141 267.060,118.511 267.600,118.621 267.600 C 118.731 267.600,118.541 267.060,118.200 266.400 C 117.859 265.740,117.489 265.200,117.379 265.200 C 117.269 265.200,117.459 265.740,117.800 266.400 M222.406 266.233 C 222.409 266.655,222.595 267.270,222.818 267.600 C 223.115 268.038,223.152 267.876,222.956 267.000 C 222.627 265.529,222.398 265.210,222.406 266.233 M297.446 267.400 C 297.091 267.950,296.509 268.895,296.153 269.500 L 295.505 270.600 296.310 269.626 C 297.260 268.476,298.521 266.400,298.269 266.400 C 298.171 266.400,297.801 266.850,297.446 267.400 M164.000 269.546 C 164.000 270.176,163.622 271.211,163.161 271.846 L 162.322 273.000 163.361 271.878 C 164.257 270.910,164.863 268.400,164.200 268.400 C 164.090 268.400,164.000 268.916,164.000 269.546 M133.800 269.566 C 134.578 270.461,136.800 272.198,136.800 271.912 C 136.800 271.834,135.945 271.067,134.900 270.208 C 133.855 269.349,133.360 269.060,133.800 269.566 M223.228 269.833 C 223.244 270.475,223.416 271.360,223.610 271.800 C 223.847 272.334,223.886 272.002,223.727 270.800 C 223.446 268.680,223.188 268.180,223.228 269.833 M294.384 272.023 C 293.905 272.696,293.579 273.313,293.661 273.394 C 293.743 273.476,294.214 272.926,294.708 272.171 C 295.823 270.471,295.571 270.356,294.384 272.023 M94.340 274.316 C 94.833 275.009,95.444 275.704,95.697 275.860 C 95.950 276.017,95.754 275.577,95.260 274.884 C 94.767 274.191,94.156 273.496,93.903 273.340 C 93.650 273.183,93.846 273.623,94.340 274.316 M143.390 274.784 C 143.532 275.013,144.117 275.200,144.690 275.200 C 145.944 275.200,145.799 275.008,144.266 274.640 C 143.523 274.462,143.221 274.511,143.390 274.784 M154.400 274.800 C 153.016 275.091,153.014 275.095,154.200 275.141 C 154.860 275.167,155.670 275.013,156.000 274.800 C 156.666 274.370,156.445 274.370,154.400 274.800 M224.184 292.000 C 224.184 301.790,224.236 305.795,224.300 300.900 C 224.363 296.005,224.363 287.995,224.300 283.100 C 224.236 278.205,224.184 282.210,224.184 292.000 M96.740 277.516 C 97.233 278.209,97.844 278.904,98.097 279.060 C 98.350 279.217,98.154 278.777,97.660 278.084 C 97.167 277.391,96.556 276.696,96.303 276.540 C 96.050 276.383,96.246 276.823,96.740 277.516 M124.000 279.047 C 124.000 279.267,124.264 279.796,124.587 280.224 C 124.910 280.651,125.175 280.820,125.175 280.600 C 125.175 280.380,124.910 279.851,124.587 279.424 C 124.264 278.996,124.000 278.827,124.000 279.047 M101.347 283.100 C 102.999 285.025,105.567 287.770,107.052 289.200 C 108.724 290.809,108.238 290.188,105.776 287.570 C 103.589 285.244,101.170 282.505,100.400 281.483 C 99.630 280.461,98.852 279.619,98.671 279.612 C 98.491 279.606,99.695 281.175,101.347 283.100 M127.800 284.000 C 128.883 285.100,129.860 286.000,129.970 286.000 C 130.080 286.000,129.283 285.100,128.200 284.000 C 127.117 282.900,126.140 282.000,126.030 282.000 C 125.920 282.000,126.717 282.900,127.800 284.000 M285.375 283.700 L 284.200 285.000 285.500 283.825 C 286.215 283.179,286.800 282.594,286.800 282.525 C 286.800 282.216,286.470 282.488,285.375 283.700 M130.873 286.626 C 131.243 287.052,132.143 287.741,132.873 288.157 C 134.439 289.050,134.026 288.607,131.800 287.004 C 130.869 286.334,130.482 286.176,130.873 286.626 M281.200 288.200 C 280.228 289.190,279.523 290.000,279.633 290.000 C 279.743 290.000,280.628 289.190,281.600 288.200 C 282.572 287.210,283.277 286.400,283.167 286.400 C 283.057 286.400,282.172 287.210,281.200 288.200 M141.000 291.600 C 141.440 291.789,142.070 291.944,142.400 291.944 C 142.778 291.944,142.704 291.817,142.200 291.600 C 141.760 291.411,141.130 291.256,140.800 291.256 C 140.422 291.256,140.496 291.383,141.000 291.600 M160.200 291.594 C 159.665 291.831,160.034 291.873,161.312 291.719 L 163.223 291.488 163.112 303.524 C 163.050 310.145,163.138 315.423,163.306 315.254 C 163.475 315.086,163.565 309.649,163.506 303.174 L 163.400 291.400 162.200 291.319 C 161.540 291.274,160.640 291.398,160.200 291.594 M145.400 292.423 C 146.280 292.605,147.540 292.743,148.200 292.730 L 149.400 292.705 148.200 292.400 C 147.540 292.232,146.280 292.094,145.400 292.093 L 143.800 292.092 145.400 292.423 M153.400 292.400 L 151.800 292.686 153.200 292.714 C 153.970 292.729,155.410 292.597,156.400 292.420 L 158.200 292.100 156.600 292.107 C 155.720 292.111,154.280 292.242,153.400 292.400 M273.978 295.100 L 272.600 296.600 274.196 295.200 C 275.073 294.430,275.868 293.755,275.962 293.700 C 276.056 293.645,275.959 293.600,275.745 293.600 C 275.532 293.600,274.737 294.275,273.978 295.100 M114.455 296.210 C 117.074 298.445,121.618 301.954,120.800 301.109 C 119.811 300.088,112.841 294.400,112.578 294.400 C 112.444 294.400,113.289 295.214,114.455 296.210 M270.200 298.263 C 268.488 299.831,268.436 299.918,269.838 298.863 C 271.319 297.749,272.727 296.376,272.349 296.415 C 272.267 296.424,271.300 297.255,270.200 298.263 M124.000 303.495 C 124.000 303.884,125.614 304.919,125.851 304.682 C 125.947 304.586,125.569 304.210,125.012 303.845 C 124.456 303.480,124.000 303.322,124.000 303.495 M260.000 305.620 L 259.000 306.422 260.100 305.947 C 260.705 305.685,261.200 305.320,261.200 305.136 C 261.200 304.679,261.145 304.702,260.000 305.620 M127.024 305.787 C 127.451 306.110,127.980 306.375,128.200 306.375 C 128.420 306.375,128.251 306.110,127.824 305.787 C 127.396 305.464,126.867 305.200,126.647 305.200 C 126.427 305.200,126.596 305.464,127.024 305.787 M224.006 314.033 C 224.009 314.565,224.189 315.270,224.406 315.600 C 224.682 316.022,224.723 315.785,224.542 314.800 C 224.225 313.075,223.998 312.749,224.006 314.033 M242.000 315.400 C 241.450 315.714,241.180 315.972,241.400 315.972 C 241.620 315.972,242.250 315.714,242.800 315.400 C 243.350 315.086,243.620 314.828,243.400 314.828 C 243.180 314.828,242.550 315.086,242.000 315.400 M146.800 316.231 C 146.800 316.501,148.878 317.256,149.076 317.057 C 149.167 316.967,148.692 316.701,148.020 316.467 C 147.349 316.233,146.800 316.127,146.800 316.231 M161.429 317.562 L 160.258 319.000 161.609 317.713 C 162.351 317.005,162.878 316.358,162.779 316.275 C 162.681 316.192,162.073 316.771,161.429 317.562 M154.710 319.270 C 155.646 319.641,158.492 319.657,159.060 319.294 C 159.313 319.132,158.282 318.999,156.770 318.998 C 155.257 318.997,154.330 319.119,154.710 319.270 M228.540 319.294 C 229.108 319.657,231.954 319.641,232.890 319.270 C 233.270 319.119,232.343 318.997,230.830 318.998 C 229.318 318.999,228.287 319.132,228.540 319.294 " stroke="none" fill="#565656" fill-rule="evenodd"></path><path id="path4" d="M189.278 73.498 C 191.631 73.569,195.591 73.569,198.078 73.499 C 200.565 73.429,198.640 73.371,193.800 73.370 C 188.960 73.370,186.925 73.428,189.278 73.498 M178.800 74.000 L 177.400 74.295 178.800 74.307 C 179.570 74.315,180.650 74.176,181.200 74.000 L 182.200 73.680 181.200 73.693 C 180.650 73.700,179.570 73.838,178.800 74.000 M206.400 74.000 C 206.950 74.176,208.030 74.317,208.800 74.314 L 210.200 74.308 208.600 73.977 C 206.463 73.535,204.996 73.550,206.400 74.000 M212.600 74.781 C 213.368 75.129,215.510 75.356,215.167 75.053 C 215.075 74.972,214.280 74.796,213.400 74.662 C 212.285 74.493,212.042 74.529,212.600 74.781 M169.000 75.600 C 167.893 75.882,167.877 75.909,168.800 75.947 C 169.350 75.969,170.070 75.813,170.400 75.600 C 171.081 75.160,170.729 75.160,169.000 75.600 M217.000 75.581 C 217.768 75.929,219.910 76.156,219.567 75.853 C 219.475 75.772,218.680 75.596,217.800 75.462 C 216.685 75.293,216.442 75.329,217.000 75.581 M165.600 76.400 C 164.776 76.664,164.741 76.726,165.400 76.754 C 165.840 76.773,166.470 76.613,166.800 76.400 C 167.501 75.947,167.014 75.947,165.600 76.400 M220.800 76.382 C 221.130 76.605,221.745 76.791,222.167 76.794 C 223.190 76.802,222.871 76.573,221.400 76.244 C 220.524 76.048,220.362 76.085,220.800 76.382 M159.600 78.000 C 158.776 78.264,158.741 78.326,159.400 78.354 C 159.840 78.373,160.470 78.213,160.800 78.000 C 161.501 77.547,161.014 77.547,159.600 78.000 M226.800 77.982 C 227.130 78.205,227.745 78.391,228.167 78.394 C 229.190 78.402,228.871 78.173,227.400 77.844 C 226.524 77.648,226.362 77.685,226.800 77.982 M151.800 80.614 C 150.800 81.096,150.766 81.151,151.600 80.948 C 152.733 80.671,154.007 80.021,153.400 80.030 C 153.180 80.033,152.460 80.296,151.800 80.614 M144.400 83.600 C 143.630 84.022,143.180 84.366,143.400 84.366 C 143.620 84.366,144.430 84.022,145.200 83.600 C 145.970 83.178,146.420 82.834,146.200 82.834 C 145.980 82.834,145.170 83.178,144.400 83.600 M244.000 84.400 C 244.770 84.822,245.580 85.166,245.800 85.166 C 246.020 85.166,245.570 84.822,244.800 84.400 C 244.030 83.978,243.220 83.634,243.000 83.634 C 242.780 83.634,243.230 83.978,244.000 84.400 M251.200 87.779 C 251.200 87.889,251.740 88.259,252.400 88.600 C 253.060 88.941,253.600 89.131,253.600 89.021 C 253.600 88.911,253.060 88.541,252.400 88.200 C 251.740 87.859,251.200 87.669,251.200 87.779 M126.696 93.408 C 125.213 94.403,124.000 95.304,124.000 95.412 C 124.000 95.519,125.260 94.769,126.800 93.745 C 129.250 92.116,129.898 91.600,129.496 91.600 C 129.438 91.600,128.178 92.414,126.696 93.408 M264.400 96.146 C 264.400 96.256,264.940 96.730,265.600 97.200 C 266.260 97.670,266.800 97.964,266.800 97.854 C 266.800 97.744,266.260 97.270,265.600 96.800 C 264.940 96.330,264.400 96.036,264.400 96.146 M120.385 98.029 L 119.000 99.258 120.500 98.181 C 121.826 97.230,122.257 96.800,121.885 96.800 C 121.822 96.800,121.147 97.353,120.385 98.029 M267.200 98.133 C 267.200 98.243,267.920 98.903,268.800 99.600 C 269.680 100.297,270.400 100.777,270.400 100.667 C 270.400 100.557,269.680 99.897,268.800 99.200 C 267.920 98.503,267.200 98.023,267.200 98.133 M271.600 101.714 C 271.600 101.818,272.628 102.780,273.884 103.851 C 275.140 104.923,276.039 105.591,275.883 105.336 C 275.539 104.777,271.600 101.446,271.600 101.714 M112.575 104.500 L 111.400 105.800 112.700 104.625 C 113.912 103.530,114.184 103.200,113.875 103.200 C 113.806 103.200,113.221 103.785,112.575 104.500 M107.400 109.200 C 106.768 109.860,106.387 110.400,106.554 110.400 C 106.871 110.400,107.423 109.877,108.349 108.698 C 109.221 107.590,108.658 107.887,107.400 109.200 M284.584 114.500 C 286.097 116.205,287.412 117.600,287.507 117.600 C 287.766 117.600,283.827 113.118,282.761 112.200 C 282.250 111.760,283.070 112.795,284.584 114.500 M102.768 114.300 C 100.409 116.943,99.874 117.600,100.082 117.600 C 100.203 117.600,101.149 116.610,102.182 115.400 C 104.096 113.160,104.555 112.298,102.768 114.300 M290.400 121.600 C 291.097 122.480,291.757 123.200,291.867 123.200 C 291.977 123.200,291.497 122.480,290.800 121.600 C 290.103 120.720,289.443 120.000,289.333 120.000 C 289.223 120.000,289.703 120.720,290.400 121.600 M95.184 123.623 C 94.705 124.296,94.379 124.913,94.461 124.994 C 94.543 125.076,95.014 124.526,95.508 123.771 C 96.623 122.071,96.371 121.956,95.184 123.623 M129.067 125.067 C 128.920 125.213,128.803 125.528,128.806 125.767 C 128.809 126.005,128.969 125.952,129.161 125.649 C 129.431 125.224,130.355 125.138,133.214 125.275 C 135.252 125.372,136.577 125.318,136.159 125.154 C 135.204 124.779,129.425 124.708,129.067 125.067 M251.441 125.146 C 251.023 125.315,252.348 125.372,254.386 125.275 C 257.234 125.139,258.179 125.225,258.475 125.649 C 258.792 126.102,258.832 126.093,258.698 125.600 C 258.517 124.931,252.855 124.577,251.441 125.146 M137.633 125.744 C 137.725 125.823,138.340 126.008,139.000 126.156 C 139.876 126.352,140.038 126.315,139.600 126.018 C 139.060 125.653,137.232 125.398,137.633 125.744 M248.000 126.018 C 247.562 126.315,247.724 126.352,248.600 126.156 C 250.071 125.827,250.390 125.598,249.367 125.606 C 248.945 125.609,248.330 125.795,248.000 126.018 M295.215 128.200 C 295.217 128.420,295.586 129.050,296.036 129.600 C 296.579 130.264,296.715 130.331,296.440 129.800 C 295.766 128.495,295.212 127.772,295.215 128.200 M89.853 131.700 L 89.133 133.000 89.958 132.000 C 90.689 131.113,91.014 130.400,90.686 130.400 C 90.624 130.400,90.249 130.985,89.853 131.700 M126.649 131.815 C 126.512 132.173,126.415 132.766,126.434 133.133 C 126.453 133.500,126.627 133.269,126.821 132.620 C 127.198 131.358,127.065 130.733,126.649 131.815 M260.658 132.800 C 260.975 134.525,261.202 134.851,261.194 133.567 C 261.191 133.035,261.011 132.330,260.794 132.000 C 260.518 131.578,260.477 131.815,260.658 132.800 M155.400 133.396 C 156.294 134.139,158.828 135.509,158.200 134.910 C 157.980 134.700,157.080 134.124,156.200 133.630 C 155.320 133.135,154.960 133.030,155.400 133.396 M299.000 134.400 C 299.341 135.060,299.711 135.600,299.821 135.600 C 299.931 135.600,299.741 135.060,299.400 134.400 C 299.059 133.740,298.689 133.200,298.579 133.200 C 298.469 133.200,298.659 133.740,299.000 134.400 M187.400 133.967 C 186.080 134.095,188.960 134.200,193.800 134.200 C 198.738 134.200,201.459 134.089,200.000 133.947 C 196.848 133.640,190.673 133.650,187.400 133.967 M178.800 134.800 C 177.450 135.084,177.443 135.095,178.600 135.100 C 179.260 135.103,180.340 134.968,181.000 134.800 C 182.660 134.378,180.807 134.378,178.800 134.800 M206.600 134.800 C 207.260 134.968,208.250 135.105,208.800 135.105 C 209.692 135.105,209.670 135.072,208.600 134.800 C 207.940 134.632,206.950 134.495,206.400 134.495 C 205.508 134.495,205.530 134.528,206.600 134.800 M125.856 135.684 C 125.721 136.188,125.628 137.050,125.649 137.600 C 125.672 138.189,125.831 137.871,126.036 136.825 C 126.403 134.952,126.273 134.127,125.856 135.684 M261.488 136.800 C 261.611 138.010,261.777 139.075,261.856 139.167 C 262.153 139.511,261.930 136.167,261.604 135.400 C 261.392 134.902,261.349 135.431,261.488 136.800 M173.400 135.600 C 172.322 135.874,172.302 135.906,173.200 135.913 C 173.750 135.917,174.650 135.776,175.200 135.600 C 176.544 135.169,175.092 135.169,173.400 135.600 M212.400 135.600 C 212.950 135.776,213.850 135.917,214.400 135.913 C 215.298 135.906,215.278 135.874,214.200 135.600 C 212.508 135.169,211.056 135.169,212.400 135.600 M166.000 137.200 C 165.196 137.457,165.157 137.523,165.800 137.532 C 166.240 137.538,166.960 137.389,167.400 137.200 C 168.419 136.762,167.368 136.762,166.000 137.200 M220.200 137.200 C 220.640 137.389,221.360 137.538,221.800 137.532 C 222.443 137.523,222.404 137.457,221.600 137.200 C 220.232 136.762,219.181 136.762,220.200 137.200 M125.346 144.200 C 125.347 146.400,125.414 147.249,125.495 146.087 C 125.576 144.924,125.576 143.124,125.493 142.087 C 125.411 141.049,125.345 142.000,125.346 144.200 M262.144 144.400 C 262.144 146.490,262.212 147.345,262.294 146.300 C 262.376 145.255,262.376 143.545,262.294 142.500 C 262.212 141.455,262.144 142.310,262.144 144.400 M304.428 144.600 C 304.428 144.820,304.686 145.450,305.000 146.000 C 305.314 146.550,305.572 146.820,305.572 146.600 C 305.572 146.380,305.314 145.750,305.000 145.200 C 304.686 144.650,304.428 144.380,304.428 144.600 M81.665 147.017 C 80.995 148.488,81.123 148.802,81.847 147.465 C 82.186 146.840,82.388 146.254,82.296 146.163 C 82.205 146.071,81.921 146.456,81.665 147.017 M306.230 148.800 C 306.609 149.790,307.087 150.780,307.291 151.000 C 307.495 151.220,307.350 150.590,306.970 149.600 C 306.591 148.610,306.113 147.620,305.909 147.400 C 305.705 147.180,305.850 147.810,306.230 148.800 M261.659 150.600 C 261.620 151.260,261.496 152.250,261.383 152.800 L 261.177 153.800 261.608 152.814 C 261.844 152.272,261.968 151.282,261.883 150.614 L 261.728 149.400 261.659 150.600 M125.693 151.200 C 125.693 151.970,125.775 152.285,125.876 151.900 C 125.976 151.515,125.976 150.885,125.876 150.500 C 125.775 150.115,125.693 150.430,125.693 151.200 M124.164 162.929 C 123.709 163.628,123.015 164.695,122.622 165.300 C 122.229 165.905,121.993 166.400,122.097 166.400 C 122.366 166.400,125.286 161.953,125.124 161.791 C 125.051 161.717,124.618 162.229,124.164 162.929 M263.004 163.000 C 264.607 165.226,265.050 165.639,264.157 164.073 C 263.741 163.343,263.052 162.443,262.626 162.073 C 262.176 161.682,262.334 162.069,263.004 163.000 M74.846 166.467 C 74.821 166.834,74.696 167.464,74.570 167.867 C 74.352 168.562,74.363 168.563,74.797 167.887 C 75.048 167.496,75.173 166.866,75.073 166.487 C 74.911 165.868,74.888 165.866,74.846 166.467 M121.000 168.000 C 120.659 168.660,120.469 169.200,120.579 169.200 C 120.689 169.200,121.059 168.660,121.400 168.000 C 121.741 167.340,121.931 166.800,121.821 166.800 C 121.711 166.800,121.341 167.340,121.000 168.000 M312.412 167.200 C 312.412 167.530,312.587 168.070,312.800 168.400 C 313.145 168.933,313.188 168.933,313.188 168.400 C 313.188 168.070,313.013 167.530,312.800 167.200 C 312.455 166.667,312.412 166.667,312.412 167.200 M73.829 170.629 C 73.681 171.215,73.638 171.772,73.732 171.866 C 73.827 171.960,74.024 171.558,74.171 170.971 C 74.319 170.385,74.362 169.828,74.268 169.734 C 74.173 169.640,73.976 170.042,73.829 170.629 M73.254 173.467 C 73.225 173.944,73.096 174.664,72.970 175.067 C 72.752 175.761,72.764 175.762,73.196 175.088 C 73.447 174.697,73.575 173.977,73.481 173.488 C 73.309 172.601,73.309 172.601,73.254 173.467 M314.068 174.200 C 314.062 174.640,314.211 175.360,314.400 175.800 C 314.838 176.819,314.838 175.768,314.400 174.400 C 314.143 173.596,314.077 173.557,314.068 174.200 M72.222 179.022 C 72.072 179.825,72.028 180.562,72.126 180.660 C 72.224 180.757,72.427 180.181,72.578 179.378 C 72.728 178.575,72.772 177.838,72.674 177.740 C 72.576 177.643,72.373 178.219,72.222 179.022 M116.629 179.029 C 116.481 179.615,116.438 180.172,116.532 180.266 C 116.627 180.360,116.824 179.958,116.971 179.371 C 117.119 178.785,117.162 178.228,117.068 178.134 C 116.973 178.040,116.776 178.442,116.629 179.029 M314.880 178.600 C 314.880 179.040,315.024 179.850,315.200 180.400 C 315.454 181.192,315.520 181.233,315.520 180.600 C 315.520 180.160,315.376 179.350,315.200 178.800 C 314.946 178.008,314.880 177.967,314.880 178.600 M115.800 182.800 C 115.648 183.491,115.607 184.141,115.709 184.242 C 115.811 184.344,116.009 183.853,116.150 183.150 C 116.483 181.483,116.160 181.160,115.800 182.800 M271.246 182.400 C 271.265 182.730,271.424 183.450,271.600 184.000 L 271.920 185.000 271.954 184.000 C 271.973 183.450,271.813 182.730,271.600 182.400 C 271.255 181.867,271.216 181.867,271.246 182.400 M71.415 185.015 C 71.261 186.254,71.224 187.357,71.334 187.467 C 71.444 187.577,71.661 186.654,71.815 185.415 C 71.970 184.177,72.007 183.073,71.897 182.963 C 71.787 182.853,71.570 183.777,71.415 185.015 M315.670 184.400 C 315.657 184.950,315.795 186.120,315.977 187.000 L 316.308 188.600 316.307 187.200 C 316.305 185.435,315.709 182.812,315.670 184.400 M115.059 188.500 C 114.750 191.073,114.789 196.239,115.140 199.200 C 115.289 200.463,115.400 198.207,115.400 193.900 C 115.400 185.503,115.407 185.608,115.059 188.500 M272.184 193.600 C 272.168 200.101,272.173 200.142,272.532 196.310 C 272.743 194.055,272.750 191.280,272.548 189.710 C 272.253 187.410,272.198 187.999,272.184 193.600 M70.969 199.200 C 70.969 203.710,71.027 205.555,71.098 203.300 C 71.170 201.045,71.170 197.355,71.098 195.100 C 71.027 192.845,70.969 194.690,70.969 199.200 M316.565 199.200 C 316.565 203.050,316.625 204.625,316.698 202.700 C 316.771 200.775,316.771 197.625,316.698 195.700 C 316.625 193.775,316.565 195.350,316.565 199.200 M271.659 204.200 C 271.620 204.860,271.496 205.850,271.383 206.400 L 271.177 207.400 271.608 206.414 C 271.844 205.872,271.968 204.882,271.883 204.214 L 271.728 203.000 271.659 204.200 M115.640 205.033 C 115.662 205.675,115.833 206.650,116.020 207.200 C 116.249 207.874,116.284 207.549,116.128 206.200 C 115.869 203.950,115.579 203.259,115.640 205.033 M270.650 210.450 C 270.509 211.153,270.469 211.802,270.559 211.892 C 270.650 211.983,270.848 211.491,271.000 210.800 C 271.152 210.109,271.193 209.459,271.091 209.358 C 270.989 209.256,270.791 209.747,270.650 210.450 M116.480 210.200 C 116.480 210.640,116.624 211.450,116.800 212.000 C 117.054 212.792,117.120 212.833,117.120 212.200 C 117.120 211.760,116.976 210.950,116.800 210.400 C 116.546 209.608,116.480 209.567,116.480 210.200 M315.785 212.585 C 315.630 213.823,315.590 214.923,315.695 215.029 C 315.801 215.134,316.007 214.201,316.154 212.954 C 316.300 211.707,316.341 210.607,316.243 210.510 C 316.146 210.412,315.939 211.346,315.785 212.585 M71.270 211.600 C 71.257 212.150,71.395 213.320,71.577 214.200 L 71.908 215.800 71.907 214.400 C 71.905 212.635,71.309 210.012,71.270 211.600 M269.829 214.229 C 269.681 214.815,269.638 215.372,269.732 215.466 C 269.827 215.560,270.024 215.158,270.171 214.571 C 270.319 213.985,270.362 213.428,270.268 213.334 C 270.173 213.240,269.976 213.642,269.829 214.229 M117.256 214.000 C 117.256 214.330,117.411 214.960,117.600 215.400 C 117.817 215.904,117.944 215.978,117.944 215.600 C 117.944 215.270,117.789 214.640,117.600 214.200 C 117.383 213.696,117.256 213.622,117.256 214.000 M315.022 218.622 C 314.872 219.425,314.828 220.162,314.926 220.260 C 315.024 220.357,315.227 219.781,315.378 218.978 C 315.528 218.175,315.572 217.438,315.474 217.340 C 315.376 217.243,315.173 217.819,315.022 218.622 M72.080 218.200 C 72.080 218.640,72.224 219.450,72.400 220.000 C 72.654 220.792,72.720 220.833,72.720 220.200 C 72.720 219.760,72.576 218.950,72.400 218.400 C 72.146 217.608,72.080 217.567,72.080 218.200 M72.846 223.200 C 72.865 223.530,73.024 224.250,73.200 224.800 L 73.520 225.800 73.554 224.800 C 73.573 224.250,73.413 223.530,73.200 223.200 C 72.855 222.667,72.816 222.667,72.846 223.200 M313.449 227.015 C 313.312 227.373,313.215 227.966,313.234 228.333 C 313.253 228.700,313.427 228.469,313.621 227.820 C 313.998 226.558,313.865 225.933,313.449 227.015 M73.844 227.800 C 74.173 229.271,74.402 229.590,74.394 228.567 C 74.391 228.145,74.205 227.530,73.982 227.200 C 73.685 226.762,73.648 226.924,73.844 227.800 M263.846 229.400 C 263.491 229.950,262.909 230.895,262.553 231.500 L 261.905 232.600 262.710 231.626 C 263.660 230.476,264.921 228.400,264.669 228.400 C 264.571 228.400,264.201 228.850,263.846 229.400 M74.644 231.000 C 74.973 232.471,75.202 232.790,75.194 231.767 C 75.191 231.345,75.005 230.730,74.782 230.400 C 74.485 229.962,74.448 230.124,74.644 231.000 M260.265 234.600 C 259.437 235.590,258.884 236.400,259.036 236.400 C 259.311 236.400,259.684 235.976,261.233 233.900 C 262.513 232.186,261.931 232.606,260.265 234.600 M130.600 238.800 C 132.128 240.340,133.469 241.600,133.579 241.600 C 133.689 241.600,132.528 240.340,131.000 238.800 C 129.472 237.260,128.131 236.000,128.021 236.000 C 127.911 236.000,129.072 237.260,130.600 238.800 M256.585 238.900 L 254.600 241.000 256.700 239.015 C 257.855 237.923,258.800 236.978,258.800 236.915 C 258.800 236.617,258.429 236.949,256.585 238.900 M250.778 243.527 C 249.996 244.117,248.916 244.923,248.378 245.317 C 247.438 246.007,247.451 246.007,248.730 245.317 C 249.995 244.636,252.824 242.420,252.400 242.444 C 252.290 242.450,251.560 242.937,250.778 243.527 M136.407 243.736 C 139.128 245.564,140.000 246.090,140.000 245.903 C 140.000 245.650,135.695 242.800,135.313 242.800 C 135.149 242.800,135.641 243.221,136.407 243.736 M79.228 245.292 C 79.182 245.765,80.486 248.848,80.658 248.675 C 80.745 248.588,80.466 247.725,80.037 246.758 C 79.608 245.791,79.244 245.131,79.228 245.292 M143.254 247.787 C 143.590 248.123,146.400 249.216,146.400 249.011 C 146.400 248.901,145.748 248.538,144.951 248.205 C 143.475 247.589,142.918 247.451,143.254 247.787 M240.500 249.034 C 239.785 249.346,239.200 249.694,239.200 249.807 C 239.200 250.015,242.006 248.927,242.346 248.587 C 242.686 248.247,241.820 248.457,240.500 249.034 M305.665 251.017 C 304.995 252.488,305.123 252.802,305.847 251.465 C 306.186 250.840,306.388 250.254,306.296 250.163 C 306.205 250.071,305.921 250.456,305.665 251.017 M103.514 252.200 C 103.741 252.640,104.438 253.449,105.063 253.999 L 106.200 254.997 105.003 253.599 C 103.107 251.382,103.080 251.358,103.514 252.200 M119.000 251.857 C 121.037 253.664,121.787 254.191,121.002 253.263 C 120.566 252.748,119.847 252.141,119.404 251.914 C 118.962 251.687,118.780 251.662,119.000 251.857 M154.200 252.000 C 154.640 252.189,155.270 252.344,155.600 252.344 C 155.978 252.344,155.904 252.217,155.400 252.000 C 154.960 251.811,154.330 251.656,154.000 251.656 C 153.622 251.656,153.696 251.783,154.200 252.000 M231.800 252.000 C 231.296 252.217,231.222 252.344,231.600 252.344 C 231.930 252.344,232.560 252.189,233.000 252.000 C 233.504 251.783,233.578 251.656,233.200 251.656 C 232.870 251.656,232.240 251.811,231.800 252.000 M228.600 252.800 C 228.096 253.017,228.022 253.144,228.400 253.144 C 228.730 253.144,229.360 252.989,229.800 252.800 C 230.304 252.583,230.378 252.456,230.000 252.456 C 229.670 252.456,229.040 252.611,228.600 252.800 M160.800 253.582 C 161.130 253.805,161.745 253.991,162.167 253.994 C 163.190 254.002,162.871 253.773,161.400 253.444 C 160.524 253.248,160.362 253.285,160.800 253.582 M225.000 253.600 C 224.496 253.817,224.422 253.944,224.800 253.944 C 225.130 253.944,225.760 253.789,226.200 253.600 C 226.704 253.383,226.778 253.256,226.400 253.256 C 226.070 253.256,225.440 253.411,225.000 253.600 M165.400 254.381 C 166.168 254.729,168.310 254.956,167.967 254.653 C 167.875 254.572,167.080 254.396,166.200 254.262 C 165.085 254.093,164.842 254.129,165.400 254.381 M219.800 254.400 C 218.722 254.674,218.702 254.706,219.600 254.713 C 220.150 254.717,221.050 254.576,221.600 254.400 C 222.944 253.969,221.492 253.969,219.800 254.400 M170.137 255.070 C 170.286 255.219,170.014 255.759,169.534 256.270 C 169.054 256.782,168.798 257.200,168.966 257.200 C 169.325 257.200,170.767 255.537,170.787 255.100 C 170.794 254.935,170.590 254.800,170.333 254.800 C 170.077 254.800,169.988 254.922,170.137 255.070 M112.226 259.800 C 112.974 260.570,113.714 261.200,113.871 261.200 C 114.028 261.200,113.546 260.570,112.800 259.800 C 112.054 259.030,111.313 258.400,111.155 258.400 C 110.996 258.400,111.479 259.030,112.226 259.800 M127.844 261.700 C 130.512 266.272,137.115 272.800,139.074 272.800 C 139.249 272.800,138.223 272.015,136.796 271.056 C 133.852 269.079,131.551 266.719,129.379 263.448 C 128.082 261.493,127.016 260.280,127.844 261.700 M299.000 264.000 C 298.659 264.660,298.469 265.200,298.579 265.200 C 298.689 265.200,299.059 264.660,299.400 264.000 C 299.741 263.340,299.931 262.800,299.821 262.800 C 299.711 262.800,299.341 263.340,299.000 264.000 M164.229 266.629 C 164.081 267.215,164.038 267.772,164.132 267.866 C 164.227 267.960,164.424 267.558,164.571 266.971 C 164.719 266.385,164.762 265.828,164.668 265.734 C 164.573 265.640,164.376 266.042,164.229 266.629 M297.053 267.191 C 296.053 268.702,295.615 269.796,296.336 268.980 C 296.892 268.352,298.479 265.600,298.286 265.600 C 298.187 265.600,297.632 266.316,297.053 267.191 M222.828 266.676 C 222.918 267.715,223.544 268.596,223.572 267.724 C 223.587 267.242,223.420 266.736,223.200 266.600 C 222.980 266.464,222.813 266.498,222.828 266.676 M163.345 270.377 C 163.139 271.407,162.737 271.842,161.442 272.442 C 160.539 272.860,160.250 273.092,160.800 272.959 C 162.867 272.458,164.730 270.196,163.822 269.289 C 163.703 269.170,163.488 269.659,163.345 270.377 M223.838 271.000 C 224.170 272.984,224.402 273.304,224.394 271.767 C 224.391 271.125,224.204 270.330,223.979 270.000 C 223.686 269.570,223.646 269.854,223.838 271.000 M293.297 272.807 C 291.612 275.385,291.908 275.380,293.762 272.800 C 294.552 271.700,295.064 270.803,294.899 270.807 C 294.735 270.811,294.014 271.711,293.297 272.807 M120.598 272.765 C 121.075 274.313,121.994 276.400,122.200 276.400 C 122.414 276.400,120.849 272.307,120.517 272.000 C 120.398 271.890,120.434 272.234,120.598 272.765 M94.402 273.433 C 94.403 273.635,94.868 274.340,95.435 275.000 L 96.466 276.200 95.563 274.800 C 94.404 273.004,94.400 272.999,94.402 273.433 M143.200 274.400 C 144.568 274.838,145.619 274.838,144.600 274.400 C 144.160 274.211,143.440 274.062,143.000 274.068 C 142.357 274.077,142.396 274.143,143.200 274.400 M154.600 274.419 C 154.042 274.671,154.285 274.707,155.400 274.538 C 156.280 274.404,157.075 274.228,157.167 274.147 C 157.510 273.844,155.368 274.071,154.600 274.419 M147.891 275.089 C 148.601 275.177,149.861 275.179,150.691 275.092 C 151.521 275.005,150.940 274.933,149.400 274.931 C 147.860 274.929,147.181 275.000,147.891 275.089 M224.567 284.000 C 224.567 288.290,224.626 290.045,224.698 287.900 C 224.770 285.755,224.770 282.245,224.698 280.100 C 224.626 277.955,224.567 279.710,224.567 284.000 M99.151 279.938 C 99.821 280.785,100.687 281.730,101.074 282.038 C 101.461 282.347,100.990 281.655,100.026 280.500 C 98.006 278.078,97.338 277.649,99.151 279.938 M123.200 278.539 C 123.200 279.015,124.987 281.590,125.320 281.595 C 125.497 281.598,125.144 280.925,124.537 280.100 C 123.929 279.275,123.380 278.525,123.316 278.433 C 123.252 278.342,123.200 278.389,123.200 278.539 M101.600 282.925 C 101.600 282.994,102.185 283.579,102.900 284.225 L 104.200 285.400 103.025 284.100 C 101.930 282.888,101.600 282.616,101.600 282.925 M283.600 285.000 C 282.628 285.990,281.923 286.800,282.033 286.800 C 282.143 286.800,283.028 285.990,284.000 285.000 C 284.972 284.010,285.677 283.200,285.567 283.200 C 285.457 283.200,284.572 284.010,283.600 285.000 M108.577 290.290 C 109.885 291.659,111.040 292.694,111.144 292.590 C 111.248 292.485,111.254 292.355,111.157 292.300 C 111.061 292.245,109.906 291.210,108.591 290.000 L 106.200 287.800 108.577 290.290 M141.200 291.982 C 141.530 292.205,142.145 292.391,142.567 292.394 C 143.590 292.402,143.271 292.173,141.800 291.844 C 140.924 291.648,140.762 291.685,141.200 291.982 M160.000 292.000 C 158.616 292.291,158.614 292.295,159.800 292.341 C 160.460 292.367,161.270 292.213,161.600 292.000 C 162.266 291.570,162.045 291.570,160.000 292.000 M162.705 295.899 C 162.893 303.585,163.050 304.333,163.126 297.900 C 163.167 294.435,163.065 291.600,162.900 291.599 C 162.735 291.599,162.647 293.534,162.705 295.899 M145.200 292.840 C 145.750 292.994,148.360 293.117,151.000 293.114 C 153.640 293.110,155.530 293.048,155.200 292.975 C 153.966 292.703,144.241 292.572,145.200 292.840 M112.400 293.725 C 112.400 293.794,112.985 294.379,113.700 295.025 L 115.000 296.200 113.825 294.900 C 112.730 293.688,112.400 293.416,112.400 293.725 M273.878 294.613 C 273.260 295.156,272.914 295.600,273.108 295.600 C 273.302 295.600,273.883 295.150,274.400 294.600 C 275.595 293.328,275.331 293.334,273.878 294.613 M115.582 296.570 C 116.221 297.349,120.800 300.951,120.800 300.674 C 120.800 300.580,119.495 299.457,117.900 298.181 C 116.305 296.904,115.262 296.179,115.582 296.570 M121.297 301.033 C 121.427 301.244,122.391 302.032,123.437 302.784 C 124.484 303.535,125.233 303.978,125.103 303.767 C 124.973 303.556,124.009 302.768,122.963 302.016 C 121.916 301.265,121.167 300.822,121.297 301.033 M263.600 302.849 C 262.206 304.071,262.205 304.072,263.488 303.219 C 264.196 302.748,264.882 302.191,265.012 301.981 C 265.397 301.357,265.077 301.554,263.600 302.849 M125.600 304.101 C 125.600 304.276,126.405 304.841,129.700 306.978 C 130.305 307.371,130.800 307.605,130.800 307.499 C 130.800 307.324,129.995 306.759,126.700 304.622 C 126.095 304.229,125.600 303.995,125.600 304.101 M259.595 305.454 C 257.212 307.031,255.849 308.210,257.800 307.006 C 261.075 304.983,262.415 304.000,261.895 304.000 C 261.837 304.000,260.802 304.654,259.595 305.454 M132.800 308.820 C 134.187 309.761,134.978 310.035,134.000 309.236 C 133.450 308.786,132.820 308.417,132.600 308.415 C 132.380 308.413,132.470 308.596,132.800 308.820 M226.487 317.700 C 227.106 318.305,227.835 318.795,228.106 318.788 C 228.378 318.781,228.240 318.577,227.800 318.333 C 227.360 318.090,226.631 317.600,226.181 317.245 C 225.730 316.890,225.868 317.095,226.487 317.700 M156.100 319.076 C 156.485 319.176,157.115 319.176,157.500 319.076 C 157.885 318.975,157.570 318.893,156.800 318.893 C 156.030 318.893,155.715 318.975,156.100 319.076 M229.905 319.083 C 230.402 319.179,231.122 319.175,231.505 319.075 C 231.887 318.975,231.480 318.896,230.600 318.901 C 229.720 318.905,229.407 318.987,229.905 319.083 " stroke="none" fill="#848484" fill-rule="evenodd"></path></g></svg>